<?xml version="1.0" encoding="UTF-8"?>
<svg width="120" height="120" viewBox="0 0 120 120" xmlns="http://www.w3.org/2000/svg">
  <defs>
    <!-- Main knob gradient -->
    <radialGradient id="knobGradient" cx="40%" cy="25%" r="80%">
      <stop offset="0%" style="stop-color:#DAA520;stop-opacity:1" />
      <stop offset="30%" style="stop-color:#CD853F;stop-opacity:1" />
      <stop offset="70%" style="stop-color:#8B7355;stop-opacity:1" />
      <stop offset="100%" style="stop-color:#654321;stop-opacity:1" />
    </radialGradient>
    
    <!-- Inner ring gradient -->
    <radialGradient id="innerRingGradient" cx="50%" cy="50%" r="50%">
      <stop offset="0%" style="stop-color:#FFD700;stop-opacity:0.8" />
      <stop offset="100%" style="stop-color:#CD853F;stop-opacity:0.3" />
    </radialGradient>
    
    <!-- Outer ring gradient -->
    <linearGradient id="outerRingGradient" x1="0%" y1="0%" x2="100%" y2="100%">
      <stop offset="0%" style="stop-color:#4A4A4A;stop-opacity:1" />
      <stop offset="50%" style="stop-color:#2A2A2A;stop-opacity:1" />
      <stop offset="100%" style="stop-color:#1A1A1A;stop-opacity:1" />
    </linearGradient>
    
    <!-- Shadow filter -->
    <filter id="dropShadow" x="-50%" y="-50%" width="200%" height="200%">
      <feDropShadow dx="2" dy="2" stdDeviation="3" flood-color="#000000" flood-opacity="0.5"/>
    </filter>
    
    <!-- Inner shadow filter -->
    <filter id="innerShadow" x="-50%" y="-50%" width="200%" height="200%">
      <feOffset dx="0" dy="0"/>
      <feGaussianBlur stdDeviation="2" result="offset-blur"/>
      <feFlood flood-color="#000000" flood-opacity="0.4"/>
      <feComposite in2="offset-blur" operator="in"/>
      <feComposite in="SourceGraphic" operator="over"/>
    </filter>
  </defs>
  
  <!-- Drop shadow -->
  <circle cx="62" cy="62" r="55" fill="#000000" opacity="0.3"/>
  
  <!-- Outer metal ring -->
  <circle cx="60" cy="60" r="58" fill="url(#outerRingGradient)" stroke="#1A1A1A" stroke-width="2"/>
  <circle cx="60" cy="60" r="55" fill="none" stroke="#6A6A6A" stroke-width="1" opacity="0.6"/>
  
  <!-- Main knob body -->
  <circle cx="60" cy="60" r="50" fill="url(#knobGradient)" filter="url(#dropShadow)"/>
  
  <!-- Highlight on top -->
  <ellipse cx="60" cy="45" rx="35" ry="15" fill="#FFFFFF" opacity="0.4"/>
  <ellipse cx="60" cy="40" rx="25" ry="8" fill="#FFFFFF" opacity="0.6"/>
  
  <!-- Inner decorative ring -->
  <circle cx="60" cy="60" r="40" fill="none" stroke="url(#innerRingGradient)" stroke-width="2"/>
  <circle cx="60" cy="60" r="38" fill="none" stroke="#FFD700" stroke-width="1" opacity="0.4"/>
  
  <!-- Textured surface lines -->
  <g stroke="#8B7355" stroke-width="0.5" opacity="0.6">
    <circle cx="60" cy="60" r="30" fill="none"/>
    <circle cx="60" cy="60" r="25" fill="none"/>
    <circle cx="60" cy="60" r="20" fill="none"/>
  </g>
  
  <!-- Tick marks around the perimeter -->
  <g stroke="#2A2A2A" stroke-width="2" stroke-linecap="round">
    <!-- Major ticks every 30 degrees -->
    <line x1="60" y1="10" x2="60" y2="18" transform="rotate(0 60 60)"/>
    <line x1="60" y1="10" x2="60" y2="18" transform="rotate(30 60 60)"/>
    <line x1="60" y1="10" x2="60" y2="18" transform="rotate(60 60 60)"/>
    <line x1="60" y1="10" x2="60" y2="18" transform="rotate(90 60 60)"/>
    <line x1="60" y1="10" x2="60" y2="18" transform="rotate(120 60 60)"/>
    <line x1="60" y1="10" x2="60" y2="18" transform="rotate(150 60 60)"/>
    <line x1="60" y1="10" x2="60" y2="18" transform="rotate(180 60 60)"/>
    <line x1="60" y1="10" x2="60" y2="18" transform="rotate(210 60 60)"/>
    <line x1="60" y1="10" x2="60" y2="18" transform="rotate(240 60 60)"/>
    <line x1="60" y1="10" x2="60" y2="18" transform="rotate(270 60 60)"/>
    <line x1="60" y1="10" x2="60" y2="18" transform="rotate(300 60 60)"/>
    <line x1="60" y1="10" x2="60" y2="18" transform="rotate(330 60 60)"/>
  </g>
  
  <!-- Minor ticks every 15 degrees -->
  <g stroke="#4A4A4A" stroke-width="1" stroke-linecap="round" opacity="0.7">
    <line x1="60" y1="12" x2="60" y2="18" transform="rotate(15 60 60)"/>
    <line x1="60" y1="12" x2="60" y2="18" transform="rotate(45 60 60)"/>
    <line x1="60" y1="12" x2="60" y2="18" transform="rotate(75 60 60)"/>
    <line x1="60" y1="12" x2="60" y2="18" transform="rotate(105 60 60)"/>
    <line x1="60" y1="12" x2="60" y2="18" transform="rotate(135 60 60)"/>
    <line x1="60" y1="12" x2="60" y2="18" transform="rotate(165 60 60)"/>
    <line x1="60" y1="12" x2="60" y2="18" transform="rotate(195 60 60)"/>
    <line x1="60" y1="12" x2="60" y2="18" transform="rotate(225 60 60)"/>
    <line x1="60" y1="12" x2="60" y2="18" transform="rotate(255 60 60)"/>
    <line x1="60" y1="12" x2="60" y2="18" transform="rotate(285 60 60)"/>
    <line x1="60" y1="12" x2="60" y2="18" transform="rotate(315 60 60)"/>
    <line x1="60" y1="12" x2="60" y2="18" transform="rotate(345 60 60)"/>
  </g>
  
  <!-- Center mounting screw -->
  <circle cx="60" cy="60" r="6" fill="#1A1A1A"/>
  <circle cx="60" cy="60" r="4" fill="#2A2A2A"/>
  <line x1="56" y1="60" x2="64" y2="60" stroke="#4A4A4A" stroke-width="1"/>
  <line x1="60" y1="56" x2="60" y2="64" stroke="#4A4A4A" stroke-width="1"/>
</svg>
