<?xml version="1.0" encoding="UTF-8"?>
<svg width="140" height="140" viewBox="0 0 140 140" xmlns="http://www.w3.org/2000/svg">
  <defs>
    <!-- Роскошный главный градиент -->
    <radialGradient id="luxuryGradient" cx="40%" cy="30%" r="80%">
      <stop offset="0%" style="stop-color:#FFE55C;stop-opacity:1" />
      <stop offset="15%" style="stop-color:#FF9500;stop-opacity:1" />
      <stop offset="40%" style="stop-color:#FF6B35;stop-opacity:1" />
      <stop offset="65%" style="stop-color:#FF4500;stop-opacity:1" />
      <stop offset="85%" style="stop-color:#CD853F;stop-opacity:1" />
      <stop offset="100%" style="stop-color:#8B7355;stop-opacity:1" />
    </radialGradient>
    
    <!-- Платиновый градиент для рамки -->
    <linearGradient id="platinumGradient" x1="0%" y1="0%" x2="100%" y2="100%">
      <stop offset="0%" style="stop-color:#F8F8FF;stop-opacity:1" />
      <stop offset="20%" style="stop-color:#E6E6FA;stop-opacity:1" />
      <stop offset="40%" style="stop-color:#FFFFFF;stop-opacity:1" />
      <stop offset="60%" style="stop-color:#E0E0E0;stop-opacity:1" />
      <stop offset="80%" style="stop-color:#FFFFFF;stop-opacity:1" />
      <stop offset="100%" style="stop-color:#D3D3D3;stop-opacity:1" />
    </linearGradient>
    
    <!-- Глубокая тень -->
    <radialGradient id="deepShadow" cx="50%" cy="50%" r="60%">
      <stop offset="0%" style="stop-color:#000000;stop-opacity:0" />
      <stop offset="40%" style="stop-color:#000000;stop-opacity:0.1" />
      <stop offset="80%" style="stop-color:#000000;stop-opacity:0.3" />
      <stop offset="100%" style="stop-color:#000000;stop-opacity:0.6" />
    </radialGradient>
    
    <!-- Волшебное свечение -->
    <filter id="magicGlow" x="-100%" y="-100%" width="300%" height="300%">
      <feGaussianBlur stdDeviation="4" result="coloredBlur"/>
      <feMerge>
        <feMergeNode in="coloredBlur"/>
        <feMergeNode in="SourceGraphic"/>
      </feMerge>
    </filter>
    
    <!-- 3D эффект -->
    <filter id="luxur3D" x="-50%" y="-50%" width="200%" height="200%">
      <feOffset dx="2" dy="3" result="offset" in="SourceGraphic"/>
      <feFlood flood-color="#000000" flood-opacity="0.4"/>
      <feComposite in2="offset" operator="in"/>
      <feGaussianBlur stdDeviation="3" result="blurred"/>
      <feMerge>
        <feMergeNode in="blurred"/>
        <feMergeNode in="SourceGraphic"/>
      </feMerge>
    </filter>
    
    <!-- Роскошная тень для текста -->
    <filter id="luxuryTextShadow" x="-100%" y="-100%" width="300%" height="300%">
      <feOffset dx="2" dy="2" result="offset"/>
      <feFlood flood-color="#000000" flood-opacity="0.8"/>
      <feComposite in2="offset" operator="in" result="shadow"/>
      <feGaussianBlur stdDeviation="1.5" result="blurredShadow"/>
      <feMerge>
        <feMergeNode in="blurredShadow"/>
        <feMergeNode in="SourceGraphic"/>
      </feMerge>
    </filter>
    
    <!-- Радужный градиент для волн -->
    <linearGradient id="waveGradient" x1="0%" y1="0%" x2="100%" y2="0%">
      <stop offset="0%" style="stop-color:#FF69B4;stop-opacity:0.9" />
      <stop offset="25%" style="stop-color:#00BFFF;stop-opacity:0.9" />
      <stop offset="50%" style="stop-color:#00FF7F;stop-opacity:0.9" />
      <stop offset="75%" style="stop-color:#FFD700;stop-opacity:0.9" />
      <stop offset="100%" style="stop-color:#FF6347;stop-opacity:0.9" />
    </linearGradient>
    
    <!-- Золотой градиент -->
    <radialGradient id="goldGradient" cx="50%" cy="30%" r="70%">
      <stop offset="0%" style="stop-color:#FFE55C;stop-opacity:1" />
      <stop offset="40%" style="stop-color:#FFD700;stop-opacity:1" />
      <stop offset="70%" style="stop-color:#FFA500;stop-opacity:1" />
      <stop offset="100%" style="stop-color:#FF8C00;stop-opacity:1" />
    </radialGradient>
  </defs>
  
  <!-- Множественные тени для глубины -->
  <circle cx="75" cy="75" r="60" fill="url(#deepShadow)" opacity="0.8"/>
  <circle cx="73" cy="73" r="58" fill="#000000" opacity="0.2"/>
  <circle cx="71" cy="71" r="56" fill="#000000" opacity="0.1"/>
  
  <!-- Платиновая внешняя рамка -->
  <circle cx="70" cy="70" r="58" fill="url(#platinumGradient)" stroke="#B8B8B8" stroke-width="1.5"/>
  
  <!-- Дополнительная внутренняя рамка -->
  <circle cx="70" cy="70" r="54" fill="none" stroke="url(#goldGradient)" stroke-width="3"/>
  
  <!-- Основной роскошный круг -->
  <circle cx="70" cy="70" r="50" fill="url(#luxuryGradient)" stroke="#B8860B" stroke-width="2" filter="url(#magicGlow)"/>
  
  <!-- Многослойные блики -->
  <ellipse cx="70" cy="50" rx="38" ry="22" fill="#FFFFFF" opacity="0.5"/>
  <ellipse cx="70" cy="48" rx="28" ry="15" fill="#FFFFFF" opacity="0.7"/>
  <ellipse cx="70" cy="46" rx="18" ry="9" fill="#FFFFFF" opacity="0.9"/>
  
  <!-- Роскошная буква "M" с 3D эффектом -->
  <g filter="url(#luxuryTextShadow)">
    <!-- Основа буквы -->
    <path d="M 40 45 L 40 95 L 48 95 L 48 68 L 58 88 L 66 88 L 76 68 L 76 95 L 84 95 L 84 45 L 72 45 L 62 72 L 52 45 Z" 
          fill="url(#goldGradient)" stroke="#1A1A1A" stroke-width="1.2" stroke-linejoin="round"/>
    
    <!-- Дополнительные блики на букве -->
    <path d="M 42 48 L 46 48 L 46 65" stroke="#FFFFFF" stroke-width="2" stroke-linecap="round" opacity="0.8"/>
    <path d="M 78 48 L 82 48 L 82 65" stroke="#FFFFFF" stroke-width="2" stroke-linecap="round" opacity="0.8"/>
  </g>
  
  <!-- Эпические звуковые волны -->
  <g opacity="0.9">
    <!-- Левые многослойные волны -->
    <g stroke="url(#waveGradient)" stroke-width="3" fill="none" stroke-linecap="round">
      <path d="M 10 50 Q 15 45 20 50 Q 25 55 30 50 Q 35 45 40 50"/>
      <path d="M 12 60 Q 17 55 22 60 Q 27 65 32 60 Q 37 55 42 60"/>
      <path d="M 10 70 Q 15 65 20 70 Q 25 75 30 70 Q 35 65 40 70"/>
      <path d="M 12 80 Q 17 75 22 80 Q 27 85 32 80 Q 37 75 42 80"/>
      <path d="M 10 90 Q 15 85 20 90 Q 25 95 30 90 Q 35 85 40 90"/>
    </g>
    
    <!-- Правые многослойные волны -->
    <g stroke="url(#waveGradient)" stroke-width="3" fill="none" stroke-linecap="round">
      <path d="M 100 50 Q 105 45 110 50 Q 115 55 120 50 Q 125 45 130 50"/>
      <path d="M 98 60 Q 103 55 108 60 Q 113 65 118 60 Q 123 55 128 60"/>
      <path d="M 100 70 Q 105 65 110 70 Q 115 75 120 70 Q 125 65 130 70"/>
      <path d="M 98 80 Q 103 75 108 80 Q 113 85 118 80 Q 123 75 128 80"/>
      <path d="M 100 90 Q 105 85 110 90 Q 115 95 120 90 Q 125 85 130 90"/>
    </g>
    
    <!-- Центральные частотные полосы -->
    <g stroke="#FFD700" stroke-width="2" fill="none" opacity="0.8">
      <path d="M 50 25 L 90 25"/>
      <path d="M 48 30 L 92 30"/>
      <path d="M 52 110 L 88 110"/>
      <path d="M 50 115 L 90 115"/>
    </g>
    
    <!-- Дополнительные декоративные элементы -->
    <g opacity="0.6" fill="url(#waveGradient)">
      <circle cx="25" cy="35" r="2"/>
      <circle cx="115" cy="35" r="2"/>
      <circle cx="25" cy="105" r="2"/>
      <circle cx="115" cy="105" r="2"/>
    </g>
  </g>
  
  <!-- Профессиональные VU-метры -->
  <g opacity="0.4">
    <!-- Левая панель -->
    <rect x="15" y="20" width="3" height="12" fill="#00FF41" rx="1"/>
    <rect x="20" y="15" width="3" height="22" fill="#7FFF00" rx="1"/>
    <rect x="25" y="12" width="3" height="28" fill="#FFFF00" rx="1"/>
    <rect x="30" y="10" width="3" height="32" fill="#FF8C00" rx="1"/>
    <rect x="35" y="8" width="3" height="36" fill="#FF4500" rx="1"/>
    
    <!-- Правая панель -->
    <rect x="102" y="20" width="3" height="12" fill="#00FF41" rx="1"/>
    <rect x="107" y="15" width="3" height="22" fill="#7FFF00" rx="1"/>
    <rect x="112" y="12" width="3" height="28" fill="#FFFF00" rx="1"/>
    <rect x="117" y="10" width="3" height="32" fill="#FF8C00" rx="1"/>
    <rect x="122" y="8" width="3" height="36" fill="#FF4500" rx="1"/>
  </g>
  
  <!-- Роскошный центральный элемент -->
  <circle cx="70" cy="70" r="6" fill="url(#goldGradient)" stroke="#8B7355" stroke-width="1"/>
  <circle cx="70" cy="70" r="4" fill="#1A1A1A" opacity="0.8"/>
  <circle cx="70" cy="70" r="2" fill="url(#goldGradient)"/>
  <circle cx="69" cy="69" r="1" fill="#FFFFFF" opacity="0.9"/>
  
  <!-- Финальные штрихи -->
  <circle cx="70" cy="70" r="50" fill="none" stroke="#FFFFFF" stroke-width="0.8" opacity="0.6"/>
  <circle cx="70" cy="70" r="47" fill="none" stroke="url(#goldGradient)" stroke-width="0.5" opacity="0.8"/>
  
  <!-- Дополнительные блики по краям -->
  <g opacity="0.5">
    <ellipse cx="45" cy="45" rx="8" ry="4" fill="#FFFFFF" opacity="0.7" transform="rotate(-45 45 45)"/>
    <ellipse cx="95" cy="95" rx="8" ry="4" fill="#FFFFFF" opacity="0.7" transform="rotate(135 95 95)"/>
  </g>
</svg>
